<?xml version="1.0" encoding="UTF-8" standalone="no"?>
<!-- Created with Inkscape (http://www.inkscape.org/) -->

<svg
   xmlns:dc="http://purl.org/dc/elements/1.1/"
   xmlns:cc="http://creativecommons.org/ns#"
   xmlns:rdf="http://www.w3.org/1999/02/22-rdf-syntax-ns#"
   xmlns:svg="http://www.w3.org/2000/svg"
   xmlns="http://www.w3.org/2000/svg"
   xmlns:sodipodi="http://sodipodi.sourceforge.net/DTD/sodipodi-0.dtd"
   xmlns:inkscape="http://www.inkscape.org/namespaces/inkscape"
   width="370"
   height="266.67468"
   id="svg2"
   version="1.1"
   inkscape:version="0.48.4 r9939"
   sodipodi:docname="drawing.svg">
  <sodipodi:namedview
     id="base"
     pagecolor="#ffffff"
     bordercolor="#666666"
     borderopacity="1.0"
     inkscape:pageopacity="0.0"
     inkscape:pageshadow="2"
     inkscape:zoom="1"
     inkscape:cx="147.04687"
     inkscape:cy="154.25513"
     inkscape:document-units="px"
     inkscape:current-layer="layer1"
     showgrid="false"
     showborder="true"
     inkscape:showpageshadow="false"
     inkscape:object-nodes="false"
     inkscape:window-width="1871"
     inkscape:window-height="1056"
     inkscape:window-x="49"
     inkscape:window-y="24"
     inkscape:window-maximized="1"
     fit-margin-top="0"
     fit-margin-left="0"
     fit-margin-right="0"
     fit-margin-bottom="0"
     borderlayer="true" />
  <defs
     id="defs4" />
  <metadata
     id="metadata7">
    <rdf:RDF>
      <cc:Work
         rdf:about="">
        <dc:format>image/svg+xml</dc:format>
        <dc:type
           rdf:resource="http://purl.org/dc/dcmitype/StillImage" />
        <dc:title></dc:title>
      </cc:Work>
    </rdf:RDF>
  </metadata>
  <g
     id="layer1"
     inkscape:groupmode="layer"
     inkscape:label="Layer 1"
     transform="translate(-373.5,-662.875)">
    <path
       style="font-size:medium;font-style:normal;font-variant:normal;font-weight:normal;font-stretch:normal;text-indent:0;text-align:start;text-decoration:none;line-height:normal;letter-spacing:normal;word-spacing:normal;text-transform:none;direction:ltr;block-progression:tb;writing-mode:lr-tb;text-anchor:start;baseline-shift:baseline;color:#000000;fill:#9b9b9b;fill-opacity:1;stroke:none;stroke-width:1;marker:none;visibility:visible;display:inline;overflow:visible;enable-background:accumulate;font-family:Sans;-inkscape-font-specification:Sans"
       d="m 383.5,672.875 0,0.5 0,49 0,0.5 0.5,0 49,0 0.5,0 0,-0.5 0,-49 0,-0.5 -0.5,0 -49,0 -0.5,0 z m 1,1 48,0 0,48 -48,0 0,-48 z"
       id="rect4742"
       inkscape:connector-curvature="0" />
    <path
       inkscape:connector-curvature="0"
       id="path4759"
       d="m 443.5,672.875 0,0.5 0,49 0,0.5 0.5,0 49,0 0.5,0 0,-0.5 0,-49 0,-0.5 -0.5,0 -49,0 -0.5,0 z m 1,1 48,0 0,48 -48,0 0,-48 z"
       style="font-size:medium;font-style:normal;font-variant:normal;font-weight:normal;font-stretch:normal;text-indent:0;text-align:start;text-decoration:none;line-height:normal;letter-spacing:normal;word-spacing:normal;text-transform:none;direction:ltr;block-progression:tb;writing-mode:lr-tb;text-anchor:start;baseline-shift:baseline;color:#000000;fill:#9b9b9b;fill-opacity:1;stroke:none;stroke-width:1;marker:none;visibility:visible;display:inline;overflow:visible;enable-background:accumulate;font-family:Sans;-inkscape-font-specification:Sans" />
    <path
       inkscape:connector-curvature="0"
       id="path4779"
       d="m 503.5,672.875 0,0.5 0,49 0,0.5 0.5,0 49,0 0.5,0 0,-0.5 0,-49 0,-0.5 -0.5,0 -49,0 -0.5,0 z m 1,1 48,0 0,48 -48,0 0,-48 z"
       style="font-size:medium;font-style:normal;font-variant:normal;font-weight:normal;font-stretch:normal;text-indent:0;text-align:start;text-decoration:none;line-height:normal;letter-spacing:normal;word-spacing:normal;text-transform:none;direction:ltr;block-progression:tb;writing-mode:lr-tb;text-anchor:start;baseline-shift:baseline;color:#000000;fill:#9b9b9b;fill-opacity:1;stroke:none;stroke-width:1;marker:none;visibility:visible;display:inline;overflow:visible;enable-background:accumulate;font-family:Sans;-inkscape-font-specification:Sans" />
    <path
       style="font-size:medium;font-style:normal;font-variant:normal;font-weight:normal;font-stretch:normal;text-indent:0;text-align:start;text-decoration:none;line-height:normal;letter-spacing:normal;word-spacing:normal;text-transform:none;direction:ltr;block-progression:tb;writing-mode:lr-tb;text-anchor:start;baseline-shift:baseline;color:#000000;fill:#9b9b9b;fill-opacity:1;stroke:none;stroke-width:1;marker:none;visibility:visible;display:inline;overflow:visible;enable-background:accumulate;font-family:Sans;-inkscape-font-specification:Sans"
       d="m 563.5,672.875 0,0.5 0,49 0,0.5 0.5,0 49,0 0.5,0 0,-0.5 0,-49 0,-0.5 -0.5,0 -49,0 -0.5,0 z m 1,1 48,0 0,48 -48,0 0,-48 z"
       id="path4787"
       inkscape:connector-curvature="0" />
    <path
       style="font-size:medium;font-style:normal;font-variant:normal;font-weight:normal;font-stretch:normal;text-indent:0;text-align:start;text-decoration:none;line-height:normal;letter-spacing:normal;word-spacing:normal;text-transform:none;direction:ltr;block-progression:tb;writing-mode:lr-tb;text-anchor:start;baseline-shift:baseline;color:#000000;fill:#9b9b9b;fill-opacity:1;stroke:none;stroke-width:1;marker:none;visibility:visible;display:inline;overflow:visible;enable-background:accumulate;font-family:Sans;-inkscape-font-specification:Sans"
       d="m 623.5,672.875 0,0.5 0,49 0,0.5 0.5,0 49,0 0.5,0 0,-0.5 0,-49 0,-0.5 -0.5,0 -49,0 -0.5,0 z m 1,1 48,0 0,48 -48,0 0,-48 z"
       id="path4797"
       inkscape:connector-curvature="0" />
    <path
       inkscape:connector-curvature="0"
       id="path4805"
       d="m 683.5,672.875 0,0.5 0,49 0,0.5 0.5,0 49,0 0.5,0 0,-0.5 0,-49 0,-0.5 -0.5,0 -49,0 -0.5,0 z m 1,1 48,0 0,48 -48,0 0,-48 z"
       style="font-size:medium;font-style:normal;font-variant:normal;font-weight:normal;font-stretch:normal;text-indent:0;text-align:start;text-decoration:none;line-height:normal;letter-spacing:normal;word-spacing:normal;text-transform:none;direction:ltr;block-progression:tb;writing-mode:lr-tb;text-anchor:start;baseline-shift:baseline;color:#000000;fill:#9b9b9b;fill-opacity:1;stroke:none;stroke-width:1;marker:none;visibility:visible;display:inline;overflow:visible;enable-background:accumulate;font-family:Sans;-inkscape-font-specification:Sans" />
    <path
       inkscape:connector-curvature="0"
       id="path4846"
       d="m 383.5,732.875 0,0.5 0,49 0,0.5 0.5,0 49,0 0.5,0 0,-0.5 0,-49 0,-0.5 -0.5,0 -49,0 -0.5,0 z m 1,1 48,0 0,48 -48,0 0,-48 z"
       style="font-size:medium;font-style:normal;font-variant:normal;font-weight:normal;font-stretch:normal;text-indent:0;text-align:start;text-decoration:none;line-height:normal;letter-spacing:normal;word-spacing:normal;text-transform:none;direction:ltr;block-progression:tb;writing-mode:lr-tb;text-anchor:start;baseline-shift:baseline;color:#000000;fill:#9b9b9b;fill-opacity:1;stroke:none;stroke-width:1;marker:none;visibility:visible;display:inline;overflow:visible;enable-background:accumulate;font-family:Sans;-inkscape-font-specification:Sans" />
    <path
       style="font-size:medium;font-style:normal;font-variant:normal;font-weight:normal;font-stretch:normal;text-indent:0;text-align:start;text-decoration:none;line-height:normal;letter-spacing:normal;word-spacing:normal;text-transform:none;direction:ltr;block-progression:tb;writing-mode:lr-tb;text-anchor:start;baseline-shift:baseline;color:#000000;fill:#9b9b9b;fill-opacity:1;stroke:none;stroke-width:1;marker:none;visibility:visible;display:inline;overflow:visible;enable-background:accumulate;font-family:Sans;-inkscape-font-specification:Sans"
       d="m 443.5,732.875 0,0.5 0,49 0,0.5 0.5,0 49,0 0.5,0 0,-0.5 0,-49 0,-0.5 -0.5,0 -49,0 -0.5,0 z m 1,1 48,0 0,48 -48,0 0,-48 z"
       id="path4854"
       inkscape:connector-curvature="0" />
    <path
       style="font-size:medium;font-style:normal;font-variant:normal;font-weight:normal;font-stretch:normal;text-indent:0;text-align:start;text-decoration:none;line-height:normal;letter-spacing:normal;word-spacing:normal;text-transform:none;direction:ltr;block-progression:tb;writing-mode:lr-tb;text-anchor:start;baseline-shift:baseline;color:#000000;fill:#9b9b9b;fill-opacity:1;stroke:none;stroke-width:1;marker:none;visibility:visible;display:inline;overflow:visible;enable-background:accumulate;font-family:Sans;-inkscape-font-specification:Sans"
       d="m 503.5,732.875 0,0.5 0,49 0,0.5 0.5,0 49,0 0.5,0 0,-0.5 0,-49 0,-0.5 -0.5,0 -49,0 -0.5,0 z m 1,1 48,0 0,48 -48,0 0,-48 z"
       id="path4864"
       inkscape:connector-curvature="0" />
    <path
       inkscape:connector-curvature="0"
       id="path4872"
       d="m 563.5,732.875 0,0.5 0,49 0,0.5 0.5,0 49,0 0.5,0 0,-0.5 0,-49 0,-0.5 -0.5,0 -49,0 -0.5,0 z m 1,1 48,0 0,48 -48,0 0,-48 z"
       style="font-size:medium;font-style:normal;font-variant:normal;font-weight:normal;font-stretch:normal;text-indent:0;text-align:start;text-decoration:none;line-height:normal;letter-spacing:normal;word-spacing:normal;text-transform:none;direction:ltr;block-progression:tb;writing-mode:lr-tb;text-anchor:start;baseline-shift:baseline;color:#000000;fill:#9b9b9b;fill-opacity:1;stroke:none;stroke-width:1;marker:none;visibility:visible;display:inline;overflow:visible;enable-background:accumulate;font-family:Sans;-inkscape-font-specification:Sans" />
    <path
       inkscape:connector-curvature="0"
       id="path4882"
       d="m 623.5,732.875 0,0.5 0,49 0,0.5 0.5,0 49,0 0.5,0 0,-0.5 0,-49 0,-0.5 -0.5,0 -49,0 -0.5,0 z m 1,1 48,0 0,48 -48,0 0,-48 z"
       style="font-size:medium;font-style:normal;font-variant:normal;font-weight:normal;font-stretch:normal;text-indent:0;text-align:start;text-decoration:none;line-height:normal;letter-spacing:normal;word-spacing:normal;text-transform:none;direction:ltr;block-progression:tb;writing-mode:lr-tb;text-anchor:start;baseline-shift:baseline;color:#000000;fill:#9b9b9b;fill-opacity:1;stroke:none;stroke-width:1;marker:none;visibility:visible;display:inline;overflow:visible;enable-background:accumulate;font-family:Sans;-inkscape-font-specification:Sans" />
    <path
       style="font-size:medium;font-style:normal;font-variant:normal;font-weight:normal;font-stretch:normal;text-indent:0;text-align:start;text-decoration:none;line-height:normal;letter-spacing:normal;word-spacing:normal;text-transform:none;direction:ltr;block-progression:tb;writing-mode:lr-tb;text-anchor:start;baseline-shift:baseline;color:#000000;fill:#9b9b9b;fill-opacity:1;stroke:none;stroke-width:1;marker:none;visibility:visible;display:inline;overflow:visible;enable-background:accumulate;font-family:Sans;-inkscape-font-specification:Sans"
       d="m 683.5,732.875 0,0.5 0,49 0,0.5 0.5,0 49,0 0.5,0 0,-0.5 0,-49 0,-0.5 -0.5,0 -49,0 -0.5,0 z m 1,1 48,0 0,48 -48,0 0,-48 z"
       id="path4890"
       inkscape:connector-curvature="0" />
    <path
       inkscape:connector-curvature="0"
       id="path4902"
       d="m 383.5,792.875 0,0.5 0,49 0,0.5 0.5,0 49,0 0.5,0 0,-0.5 0,-49 0,-0.5 -0.5,0 -49,0 -0.5,0 z m 1,1 48,0 0,48 -48,0 0,-48 z"
       style="font-size:medium;font-style:normal;font-variant:normal;font-weight:normal;font-stretch:normal;text-indent:0;text-align:start;text-decoration:none;line-height:normal;letter-spacing:normal;word-spacing:normal;text-transform:none;direction:ltr;block-progression:tb;writing-mode:lr-tb;text-anchor:start;baseline-shift:baseline;color:#000000;fill:#9b9b9b;fill-opacity:1;stroke:none;stroke-width:1;marker:none;visibility:visible;display:inline;overflow:visible;enable-background:accumulate;font-family:Sans;-inkscape-font-specification:Sans" />
    <path
       style="font-size:medium;font-style:normal;font-variant:normal;font-weight:normal;font-stretch:normal;text-indent:0;text-align:start;text-decoration:none;line-height:normal;letter-spacing:normal;word-spacing:normal;text-transform:none;direction:ltr;block-progression:tb;writing-mode:lr-tb;text-anchor:start;baseline-shift:baseline;color:#000000;fill:#9b9b9b;fill-opacity:1;stroke:none;stroke-width:1;marker:none;visibility:visible;display:inline;overflow:visible;enable-background:accumulate;font-family:Sans;-inkscape-font-specification:Sans"
       d="m 443.5,792.875 0,0.5 0,49 0,0.5 0.5,0 49,0 0.5,0 0,-0.5 0,-49 0,-0.5 -0.5,0 -49,0 -0.5,0 z m 1,1 48,0 0,48 -48,0 0,-48 z"
       id="path4910"
       inkscape:connector-curvature="0" />
    <path
       style="font-size:medium;font-style:normal;font-variant:normal;font-weight:normal;font-stretch:normal;text-indent:0;text-align:start;text-decoration:none;line-height:normal;letter-spacing:normal;word-spacing:normal;text-transform:none;direction:ltr;block-progression:tb;writing-mode:lr-tb;text-anchor:start;baseline-shift:baseline;color:#000000;fill:#9b9b9b;fill-opacity:1;stroke:none;stroke-width:1;marker:none;visibility:visible;display:inline;overflow:visible;enable-background:accumulate;font-family:Sans;-inkscape-font-specification:Sans"
       d="m 503.5,792.875 0,0.5 0,49 0,0.5 0.5,0 49,0 0.5,0 0,-0.5 0,-49 0,-0.5 -0.5,0 -49,0 -0.5,0 z m 1,1 48,0 0,48 -48,0 0,-48 z"
       id="path4920"
       inkscape:connector-curvature="0" />
    <path
       inkscape:connector-curvature="0"
       id="path4928"
       d="m 563.5,792.875 0,0.5 0,49 0,0.5 0.5,0 49,0 0.5,0 0,-0.5 0,-49 0,-0.5 -0.5,0 -49,0 -0.5,0 z m 1,1 48,0 0,48 -48,0 0,-48 z"
       style="font-size:medium;font-style:normal;font-variant:normal;font-weight:normal;font-stretch:normal;text-indent:0;text-align:start;text-decoration:none;line-height:normal;letter-spacing:normal;word-spacing:normal;text-transform:none;direction:ltr;block-progression:tb;writing-mode:lr-tb;text-anchor:start;baseline-shift:baseline;color:#000000;fill:#9b9b9b;fill-opacity:1;stroke:none;stroke-width:1;marker:none;visibility:visible;display:inline;overflow:visible;enable-background:accumulate;font-family:Sans;-inkscape-font-specification:Sans" />
    <path
       inkscape:connector-curvature="0"
       id="path4938"
       d="m 623.5,792.875 0,0.5 0,49 0,0.5 0.5,0 49,0 0.5,0 0,-0.5 0,-49 0,-0.5 -0.5,0 -49,0 -0.5,0 z m 1,1 48,0 0,48 -48,0 0,-48 z"
       style="font-size:medium;font-style:normal;font-variant:normal;font-weight:normal;font-stretch:normal;text-indent:0;text-align:start;text-decoration:none;line-height:normal;letter-spacing:normal;word-spacing:normal;text-transform:none;direction:ltr;block-progression:tb;writing-mode:lr-tb;text-anchor:start;baseline-shift:baseline;color:#000000;fill:#9b9b9b;fill-opacity:1;stroke:none;stroke-width:1;marker:none;visibility:visible;display:inline;overflow:visible;enable-background:accumulate;font-family:Sans;-inkscape-font-specification:Sans" />
    <path
       style="font-size:medium;font-style:normal;font-variant:normal;font-weight:normal;font-stretch:normal;text-indent:0;text-align:start;text-decoration:none;line-height:normal;letter-spacing:normal;word-spacing:normal;text-transform:none;direction:ltr;block-progression:tb;writing-mode:lr-tb;text-anchor:start;baseline-shift:baseline;color:#000000;fill:#9b9b9b;fill-opacity:1;stroke:none;stroke-width:1;marker:none;visibility:visible;display:inline;overflow:visible;enable-background:accumulate;font-family:Sans;-inkscape-font-specification:Sans"
       d="m 683.5,792.875 0,0.5 0,49 0,0.5 0.5,0 49,0 0.5,0 0,-0.5 0,-49 0,-0.5 -0.5,0 -49,0 -0.5,0 z m 1,1 48,0 0,48 -48,0 0,-48 z"
       id="path4946"
       inkscape:connector-curvature="0" />
    <path
       style="font-size:medium;font-style:normal;font-variant:normal;font-weight:normal;font-stretch:normal;text-indent:0;text-align:start;text-decoration:none;line-height:normal;letter-spacing:normal;word-spacing:normal;text-transform:none;direction:ltr;block-progression:tb;writing-mode:lr-tb;text-anchor:start;baseline-shift:baseline;color:#000000;fill:#9b9b9b;fill-opacity:1;stroke:none;stroke-width:1;marker:none;visibility:visible;display:inline;overflow:visible;enable-background:accumulate;font-family:Sans;-inkscape-font-specification:Sans"
       d="m 383.5,852.875 0,0.5 0,49 0,0.5 0.5,0 49,0 0.5,0 0,-0.5 0,-49 0,-0.5 -0.5,0 -49,0 -0.5,0 z m 1,1 48,0 0,48 -48,0 0,-48 z"
       id="path4958"
       inkscape:connector-curvature="0" />
    <path
       inkscape:connector-curvature="0"
       id="path4966"
       d="m 443.5,852.875 0,0.5 0,49 0,0.5 0.5,0 49,0 0.5,0 0,-0.5 0,-49 0,-0.5 -0.5,0 -49,0 -0.5,0 z m 1,1 48,0 0,48 -48,0 0,-48 z"
       style="font-size:medium;font-style:normal;font-variant:normal;font-weight:normal;font-stretch:normal;text-indent:0;text-align:start;text-decoration:none;line-height:normal;letter-spacing:normal;word-spacing:normal;text-transform:none;direction:ltr;block-progression:tb;writing-mode:lr-tb;text-anchor:start;baseline-shift:baseline;color:#000000;fill:#9b9b9b;fill-opacity:1;stroke:none;stroke-width:1;marker:none;visibility:visible;display:inline;overflow:visible;enable-background:accumulate;font-family:Sans;-inkscape-font-specification:Sans" />
    <path
       inkscape:connector-curvature="0"
       id="path4976"
       d="m 503.5,852.875 0,0.5 0,49 0,0.5 0.5,0 49,0 0.5,0 0,-0.5 0,-49 0,-0.5 -0.5,0 -49,0 -0.5,0 z m 1,1 48,0 0,48 -48,0 0,-48 z"
       style="font-size:medium;font-style:normal;font-variant:normal;font-weight:normal;font-stretch:normal;text-indent:0;text-align:start;text-decoration:none;line-height:normal;letter-spacing:normal;word-spacing:normal;text-transform:none;direction:ltr;block-progression:tb;writing-mode:lr-tb;text-anchor:start;baseline-shift:baseline;color:#000000;fill:#9b9b9b;fill-opacity:1;stroke:none;stroke-width:1;marker:none;visibility:visible;display:inline;overflow:visible;enable-background:accumulate;font-family:Sans;-inkscape-font-specification:Sans" />
    <path
       style="font-size:medium;font-style:normal;font-variant:normal;font-weight:normal;font-stretch:normal;text-indent:0;text-align:start;text-decoration:none;line-height:normal;letter-spacing:normal;word-spacing:normal;text-transform:none;direction:ltr;block-progression:tb;writing-mode:lr-tb;text-anchor:start;baseline-shift:baseline;color:#000000;fill:#9b9b9b;fill-opacity:1;stroke:none;stroke-width:1;marker:none;visibility:visible;display:inline;overflow:visible;enable-background:accumulate;font-family:Sans;-inkscape-font-specification:Sans"
       d="m 563.5,852.875 0,0.5 0,49 0,0.5 0.5,0 49,0 0.5,0 0,-0.5 0,-49 0,-0.5 -0.5,0 -49,0 -0.5,0 z m 1,1 48,0 0,48 -48,0 0,-48 z"
       id="path4984"
       inkscape:connector-curvature="0" />
    <path
       style="font-size:medium;font-style:normal;font-variant:normal;font-weight:normal;font-stretch:normal;text-indent:0;text-align:start;text-decoration:none;line-height:normal;letter-spacing:normal;word-spacing:normal;text-transform:none;direction:ltr;block-progression:tb;writing-mode:lr-tb;text-anchor:start;baseline-shift:baseline;color:#000000;fill:#9b9b9b;fill-opacity:1;stroke:none;stroke-width:1;marker:none;visibility:visible;display:inline;overflow:visible;enable-background:accumulate;font-family:Sans;-inkscape-font-specification:Sans"
       d="m 623.5,852.875 0,0.5 0,49 0,0.5 0.5,0 49,0 0.5,0 0,-0.5 0,-49 0,-0.5 -0.5,0 -49,0 -0.5,0 z m 1,1 48,0 0,48 -48,0 0,-48 z"
       id="path4994"
       inkscape:connector-curvature="0" />
    <path
       inkscape:connector-curvature="0"
       id="path5002"
       d="m 683.5,852.875 0,0.5 0,49 0,0.5 0.5,0 49,0 0.5,0 0,-0.5 0,-49 0,-0.5 -0.5,0 -49,0 -0.5,0 z m 1,1 48,0 0,48 -48,0 0,-48 z"
       style="font-size:medium;font-style:normal;font-variant:normal;font-weight:normal;font-stretch:normal;text-indent:0;text-align:start;text-decoration:none;line-height:normal;letter-spacing:normal;word-spacing:normal;text-transform:none;direction:ltr;block-progression:tb;writing-mode:lr-tb;text-anchor:start;baseline-shift:baseline;color:#000000;fill:#9b9b9b;fill-opacity:1;stroke:none;stroke-width:1;marker:none;visibility:visible;display:inline;overflow:visible;enable-background:accumulate;font-family:Sans;-inkscape-font-specification:Sans" />
    <path
       inkscape:connector-curvature="0"
       id="path3694"
       d="m 463.57812,685.875 c -2.25909,0 -4.07812,1.89303 -4.07812,4.125 l 0,15.75 c 0,2.23197 1.81903,4.125 4.07812,4.125 l 9.84375,0 c 2.25908,0 4.07813,-1.89303 4.07813,-4.125 l 0,-15.75 c 0,-2.23197 -1.81905,-4.125 -4.07813,-4.125 l -9.84375,0 z m 1.07813,3.75 c 0.11967,-0.0244 0.24792,0 0.375,0 l 6.9375,0 c 1.01658,0 1.82812,0.81156 1.82812,1.82812 l 0,10.21875 c 0,1.01657 -0.81154,1.82813 -1.82812,1.82813 l -6.9375,0 c -1.01658,0 -1.82813,-0.81156 -1.82813,-1.82813 l 0,-10.21875 c 0,-0.8895 0.61545,-1.65757 1.45313,-1.82812 z M 468.5,705.14062 c 0.84766,0 1.54687,0.69918 1.54687,1.54688 0,0.84765 -0.69921,1.54687 -1.54687,1.54687 -0.84768,0 -1.54688,-0.69922 -1.54688,-1.54687 0,-0.84768 0.6992,-1.54688 1.54688,-1.54688 z"
       style="color:#000000;fill:#1a1a1a;fill-opacity:1;fill-rule:nonzero;stroke:none;stroke-width:7.5;marker:none;visibility:visible;display:inline;overflow:visible;enable-background:accumulate" />
    <path
       style="color:#000000;fill:#1a1a1a;fill-opacity:1;fill-rule:nonzero;stroke:none;stroke-width:7.5;marker:none;visibility:visible;display:inline;overflow:visible;enable-background:accumulate"
       d="m 468.5,745.875 c -6.62742,0 -12,5.3726 -12,12 0,6.62742 5.37258,12 12,12 6.62742,0 12,-5.37258 12,-12 0,-6.6274 -5.37258,-12 -12,-12 z m -3.03125,4.5625 6.0625,0 c 1.39624,0 2.53125,1.18302 2.53125,2.5625 l 0,9.71875 c 0,1.37948 -1.13501,2.5625 -2.53125,2.5625 l -6.0625,0 c -1.39625,0 -2.53125,-1.18302 -2.53125,-2.5625 l 0,-9.71875 c 0,-1.37948 1.135,-2.5625 2.53125,-2.5625 z m 0.65625,2.3125 c -0.51773,0.10541 -0.90625,0.60649 -0.90625,1.15625 l 0,6.3125 c 0,0.62829 0.49669,1.125 1.125,1.125 l 4.3125,0 c 0.62831,0 1.125,-0.49671 1.125,-1.125 l 0,-6.3125 c 0,-0.62828 -0.49669,-1.15625 -1.125,-1.15625 l -4.3125,0 c -0.0785,0 -0.14465,-0.0149 -0.21875,0 z m 2.375,9.59375 c -0.52391,0 -0.96875,0.44484 -0.96875,0.96875 0,0.52391 0.44484,0.9375 0.96875,0.9375 0.5239,0 0.96875,-0.41359 0.96875,-0.9375 0,-0.52391 -0.44485,-0.96875 -0.96875,-0.96875 z"
       id="path3709"
       inkscape:connector-curvature="0" />
    <path
       style="color:#000000;fill:#1a1a1a;fill-opacity:1;fill-rule:nonzero;stroke:none;stroke-width:7.5;marker:none;visibility:visible;display:inline;overflow:visible;enable-background:accumulate"
       d="m 460.03125,805.875 c -1.95868,0 -3.53125,1.57256 -3.53125,3.53125 l 0,16.9375 c 0,1.95869 1.57257,3.53125 3.53125,3.53125 l 16.9375,0 c 1.95868,0 3.53125,-1.57256 3.53125,-3.53125 l 0,-16.9375 c 0,-1.95869 -1.57257,-3.53125 -3.53125,-3.53125 l -16.9375,0 z m 5.09375,3.75 6.75,0 c 1.55312,0 2.8125,1.30927 2.8125,2.84375 l 0,10.8125 c 0,1.53448 -1.25938,2.84375 -2.8125,2.84375 l -6.75,0 c -1.55313,0 -2.8125,-1.30927 -2.8125,-2.84375 l 0,-10.8125 c 0,-1.53448 1.25937,-2.84375 2.8125,-2.84375 z m 0.71875,2.59375 c -0.5759,0.11726 -1,0.63846 -1,1.25 l 0,7.03125 c 0,0.69889 0.58234,1.25 1.28125,1.25 l 4.75,0 c 0.69891,0 1.28125,-0.55111 1.28125,-1.25 l 0,-7.03125 c 0,-0.69888 -0.58234,-1.25 -1.28125,-1.25 l -4.75,0 c -0.0874,0 -0.19885,-0.0166 -0.28125,0 z M 468.5,822.875 c -0.58278,0 -1.0625,0.47972 -1.0625,1.0625 0,0.58277 0.47972,1.0625 1.0625,1.0625 0.58277,0 1.0625,-0.47973 1.0625,-1.0625 0,-0.58278 -0.47973,-1.0625 -1.0625,-1.0625 z"
       id="rect3714"
       inkscape:connector-curvature="0" />
    <path
       style="font-size:medium;font-style:normal;font-variant:normal;font-weight:normal;font-stretch:normal;text-indent:0;text-align:start;text-decoration:none;line-height:normal;letter-spacing:normal;word-spacing:normal;text-transform:none;direction:ltr;block-progression:tb;writing-mode:lr-tb;text-anchor:start;baseline-shift:baseline;color:#000000;fill:#1a1a1a;fill-opacity:1;stroke:none;stroke-width:2;marker:none;visibility:visible;display:inline;overflow:visible;enable-background:accumulate;font-family:Sans;-inkscape-font-specification:Sans"
       d="m 468.5,864.875 c -7.16786,0 -13,5.83216 -13,13 0,7.16786 5.83214,13 13,13 7.16786,0 13,-5.83214 13,-13 0,-7.16784 -5.83214,-13 -13,-13 z m 0,2 c 6.08698,0 11,4.91304 11,11 0,6.08698 -4.91302,11 -11,11 -6.08698,0 -11,-4.91302 -11,-11 0,-6.08696 4.91302,-11 11,-11 z m -3.15625,3.34375 c -1.44331,0 -2.59375,1.19902 -2.59375,2.625 l 0,10.0625 c 0,1.42598 1.15044,2.65625 2.59375,2.65625 l 6.3125,0 c 1.4433,0 2.59375,-1.23027 2.59375,-2.65625 l 0,-10.0625 c 0,-1.42598 -1.15045,-2.625 -2.59375,-2.625 l -6.3125,0 z m 0.6875,2.40625 c 0.0765,-0.0156 0.16881,0 0.25,0 l 4.4375,0 c 0.64948,0 1.15625,0.50678 1.15625,1.15625 l 0,6.53125 c 0,0.64947 -0.50677,1.15625 -1.15625,1.15625 l -4.4375,0 c -0.64948,0 -1.15625,-0.50678 -1.15625,-1.15625 l 0,-6.53125 c 0,-0.56829 0.37107,-1.04729 0.90625,-1.15625 z m 2.46875,9.90625 c 0.54156,0 1,0.42716 1,0.96875 0,0.54155 -0.45844,1 -1,1 -0.54157,0 -1,-0.45845 -1,-1 0,-0.54158 0.45843,-0.96875 1,-0.96875 z"
       id="path3721"
       inkscape:connector-curvature="0" />
    <path
       inkscape:connector-curvature="0"
       id="path3751"
       d="m 528.51562,685.875 -11.46875,7.375 0,16.625 22.90625,0 0,-16.625 -11.4375,-7.375 z m -8.59375,11.8125 5.71875,3.6875 -5.71875,3.65625 0,-7.34375 z m 17.1875,0 0,7.34375 -5.71875,-3.6875 5.71875,-3.65625 z m -8.59375,4.96875 6.75,4.34375 -13.5,0 6.75,-4.34375 z"
       style="font-size:medium;font-style:normal;font-variant:normal;font-weight:normal;font-stretch:normal;text-indent:0;text-align:start;text-decoration:none;line-height:normal;letter-spacing:normal;word-spacing:normal;text-transform:none;direction:ltr;block-progression:tb;writing-mode:lr-tb;text-anchor:start;baseline-shift:baseline;color:#000000;fill:#1a1a1a;fill-opacity:1;fill-rule:nonzero;stroke:none;stroke-width:6;marker:none;visibility:visible;display:inline;overflow:visible;enable-background:accumulate;font-family:Sans;-inkscape-font-specification:Sans" />
    <path
       style="color:#000000;fill:#1a1a1a;fill-opacity:1;fill-rule:nonzero;stroke:none;stroke-width:7.5;marker:none;visibility:visible;display:inline;overflow:visible;enable-background:accumulate"
       d="m 528.5,745.875 c -6.62741,0 -12,5.3726 -12,12 0,6.62742 5.37259,12 12,12 6.62742,0 12,-5.37258 12,-12 0,-6.6274 -5.37258,-12 -12,-12 z m -0.25,3.1875 a 1.7526753,1.7526753 0 0 1 0.0625,0 1.7526753,1.7526753 0 0 1 1.15625,0.28125 l 5.6875,3.625 a 1.7526753,1.7526753 0 0 1 0.8125,1.46875 l 0,8.28125 a 1.7526753,1.7526753 0 0 1 -1.75,1.75 l -11.40625,0 a 1.7526753,1.7526753 0 0 1 -1.75,-1.75 l 0,-8.28125 a 1.7526753,1.7526753 0 0 1 0.8125,-1.46875 l 5.71875,-3.65625 a 1.7526753,1.7526753 0 0 1 0.65625,-0.25 z m 0.28125,1.71875 -5.6875,3.6875 0,8.25 11.34375,0 0,-8.25 -5.65625,-3.6875 z m -4.28125,5.875 2.84375,1.84375 -2.84375,1.8125 0,-3.65625 z m 8.53125,0 0,3.65625 -2.84375,-1.84375 2.84375,-1.8125 z m -4.25,2.46875 3.34375,2.15625 -6.6875,0 3.34375,-2.15625 z"
       id="path3772"
       inkscape:connector-curvature="0" />
    <path
       style="color:#000000;fill:#1a1a1a;fill-opacity:1;fill-rule:nonzero;stroke:none;stroke-width:7.5;marker:none;visibility:visible;display:inline;overflow:visible;enable-background:accumulate"
       d="m 520.0625,805.875 c -1.95868,0 -3.5625,1.57256 -3.5625,3.53125 l 0,16.9375 c 0,1.95869 1.60382,3.53125 3.5625,3.53125 l 16.90625,0 c 1.95868,0 3.53125,-1.57256 3.53125,-3.53125 l 0,-16.9375 c 0,-1.95869 -1.57257,-3.53125 -3.53125,-3.53125 l -16.90625,0 z m 8.1875,3.5625 a 1.8358168,1.8358168 0 0 1 0.0625,0 1.8358168,1.8358168 0 0 1 1.1875,0.28125 l 5.96875,3.8125 a 1.8358168,1.8358168 0 0 1 0.84375,1.53125 l 0,8.6875 a 1.8358168,1.8358168 0 0 1 -1.8125,1.8125 l -11.96875,0 a 1.8358168,1.8358168 0 0 1 -1.8125,-1.8125 l 0,-8.6875 a 1.8358168,1.8358168 0 0 1 0.84375,-1.53125 l 6,-3.84375 a 1.8358168,1.8358168 0 0 1 0.6875,-0.25 z m 0.28125,1.8125 -5.96875,3.84375 0,8.65625 11.90625,0 0,-8.65625 -5.9375,-3.84375 z m -4.46875,6.15625 2.96875,1.90625 -2.96875,1.90625 0,-3.8125 z m 8.9375,0 0,3.8125 -2.96875,-1.90625 L 533,817.40625 z m -4.46875,2.5625 3.5,2.28125 -7.03125,0 3.53125,-2.28125 z"
       id="path3838"
       inkscape:connector-curvature="0" />
    <path
       style="font-size:medium;font-style:normal;font-variant:normal;font-weight:normal;font-stretch:normal;text-indent:0;text-align:start;text-decoration:none;line-height:normal;letter-spacing:normal;word-spacing:normal;text-transform:none;direction:ltr;block-progression:tb;writing-mode:lr-tb;text-anchor:start;baseline-shift:baseline;color:#000000;fill:#1a1a1a;fill-opacity:1;stroke:none;stroke-width:2;marker:none;visibility:visible;display:inline;overflow:visible;enable-background:accumulate;font-family:Sans;-inkscape-font-specification:Sans"
       d="m 528.5,864.875 c -7.16786,0 -13,5.83216 -13,13 0,7.16786 5.83214,13 13,13 7.16786,0 13,-5.83214 13,-13 0,-7.16784 -5.83214,-13 -13,-13 z m 0,2 c 6.08698,0 11,4.91304 11,11 0,6.08698 -4.91302,11 -11,11 -6.08698,0 -11,-4.91302 -11,-11 0,-6.08696 4.91302,-11 11,-11 z m 0.0312,2.71875 -6.96875,4.46875 0,10.09375 13.90625,0 0,-10.09375 -6.9375,-4.46875 z m -5.21875,7.15625 3.46875,2.25 -3.46875,2.21875 0,-4.46875 z m 10.4375,0 0,4.46875 -3.46875,-2.25 3.46875,-2.21875 z m -5.21875,3.03125 4.09375,2.625 -8.1875,0 4.09375,-2.625 z"
       id="path3848"
       inkscape:connector-curvature="0" />
    <path
       id="path3864"
       d="m 648.5,685.875 c -5.49067,0 -9.9375,4.44684 -9.9375,9.9375 0,2.74534 1.1384,5.23215 2.9375,7.03125 l 7,7.03125 7.03125,-7.03125 c 1.7991,-1.7991 2.90625,-4.28591 2.90625,-7.03125 0,-5.49066 -4.44682,-9.9375 -9.9375,-9.9375 z m 0.0312,5.4375 c 2.47813,0 4.46875,2.02188 4.46875,4.5 0,2.47813 -1.99062,4.5 -4.46875,4.5 -2.47813,0 -4.5,-2.02187 -4.5,-4.5 0,-2.47812 2.02187,-4.5 4.5,-4.5 z"
       style="color:#000000;fill:#1a1a1a;fill-opacity:1;fill-rule:nonzero;stroke:none;stroke-width:3.50500011;marker:none;visibility:visible;display:inline;overflow:visible;enable-background:accumulate"
       inkscape:connector-curvature="0" />
    <path
       style="color:#000000;fill:#1a1a1a;fill-opacity:1;fill-rule:nonzero;stroke:none;stroke-width:7.5;marker:none;visibility:visible;display:inline;overflow:visible;enable-background:accumulate"
       d="m 648.5,745.875 c -6.62741,0 -12,5.3726 -12,12 0,6.62742 5.37259,12 12,12 6.62742,0 12,-5.37258 12,-12 0,-6.6274 -5.37258,-12 -12,-12 z m 0,4.21875 c 3.55686,0 6.4375,2.88065 6.4375,6.4375 0,1.77842 -0.70954,3.39705 -1.875,4.5625 l -4.5625,4.53125 -4.53125,-4.53125 c -1.16546,-1.16545 -1.90625,-2.78408 -1.90625,-4.5625 0,-3.55685 2.88065,-6.4375 6.4375,-6.4375 z m 0.0312,3.53125 c -1.60533,0 -2.9375,1.30092 -2.9375,2.90625 0,1.60532 1.33217,2.90625 2.9375,2.90625 1.60533,0 2.875,-1.30093 2.875,-2.90625 0,-1.60533 -1.26967,-2.90625 -2.875,-2.90625 z"
       id="path3877"
       inkscape:connector-curvature="0" />
    <path
       style="color:#000000;fill:#1a1a1a;fill-opacity:1;fill-rule:nonzero;stroke:none;stroke-width:7.5;marker:none;visibility:visible;display:inline;overflow:visible;enable-background:accumulate"
       d="m 640.03125,805.875 c -1.95868,0 -3.53125,1.57256 -3.53125,3.53125 l 0,16.9375 c 0,1.95869 1.57257,3.53125 3.53125,3.53125 l 16.9375,0 c 1.95868,0 3.53125,-1.57256 3.53125,-3.53125 l 0,-16.9375 c 0,-1.95869 -1.57257,-3.53125 -3.53125,-3.53125 l -16.9375,0 z m 8.46875,4.21875 c 3.55686,0 6.4375,2.88065 6.4375,6.4375 0,1.77842 -0.70954,3.39705 -1.875,4.5625 l -4.5625,4.5625 -4.53125,-4.5625 c -1.16546,-1.16545 -1.90625,-2.78408 -1.90625,-4.5625 0,-3.55685 2.88065,-6.4375 6.4375,-6.4375 z m 0.0312,3.53125 c -1.60533,0 -2.9375,1.30092 -2.9375,2.90625 0,1.60532 1.33217,2.9375 2.9375,2.9375 1.60533,0 2.875,-1.33218 2.875,-2.9375 0,-1.60533 -1.26967,-2.90625 -2.875,-2.90625 z"
       id="path3884"
       inkscape:connector-curvature="0" />
    <path
       style="font-size:medium;font-style:normal;font-variant:normal;font-weight:normal;font-stretch:normal;text-indent:0;text-align:start;text-decoration:none;line-height:normal;letter-spacing:normal;word-spacing:normal;text-transform:none;direction:ltr;block-progression:tb;writing-mode:lr-tb;text-anchor:start;baseline-shift:baseline;color:#000000;fill:#1a1a1a;fill-opacity:1;stroke:none;stroke-width:2;marker:none;visibility:visible;display:inline;overflow:visible;enable-background:accumulate;font-family:Sans;-inkscape-font-specification:Sans"
       d="m 648.5,864.875 c -7.16786,0 -13,5.83216 -13,13 0,7.16786 5.83214,13 13,13 7.16786,0 13,-5.83214 13,-13 0,-7.16784 -5.83214,-13 -13,-13 z m 0,2 c 6.08698,0 11,4.91304 11,11 0,6.08698 -4.91302,11 -11,11 -6.08698,0 -11,-4.91302 -11,-11 0,-6.08696 4.91302,-11 11,-11 z m 0,3.53125 c -3.41872,0 -6.1875,2.76879 -6.1875,6.1875 0,1.70936 0.72356,3.25481 1.84375,4.375 l 4.34375,4.375 4.375,-4.375 c 1.12019,-1.12019 1.8125,-2.66564 1.8125,-4.375 0,-3.41871 -2.76877,-6.1875 -6.1875,-6.1875 z m 0.0312,3.375 c 1.54298,0 2.78125,1.26952 2.78125,2.8125 0,1.54299 -1.23827,2.8125 -2.78125,2.8125 -1.54299,0 -2.8125,-1.26951 -2.8125,-2.8125 0,-1.54298 1.26951,-2.8125 2.8125,-2.8125 z"
       id="path3888"
       inkscape:connector-curvature="0" />
    <path
       style="font-size:21.22015953px;font-style:normal;font-variant:normal;font-weight:900;font-stretch:normal;text-align:start;line-height:125%;letter-spacing:0.53050399px;word-spacing:0px;writing-mode:lr-tb;text-anchor:start;fill:#1a1a1a;fill-opacity:1;stroke:none;font-family:Montserrat;-inkscape-font-specification:Montserrat Heavy"
       inkscape:connector-curvature="0"
       id="path4441"
       d="m 715.64059,705.31267 4.85941,-14.87533 -5.02918,0 -2.20689,9.76128 -2.24934,-9.76128 -4.79575,0.0212 -2.2069,9.74006 -2.24934,-9.76128 -5.2626,0 4.81698,14.87533 5.07162,0 2.12201,-8.89123 2.05836,8.89123 5.07162,0" />
    <path
       style="color:#000000;fill:#1a1a1a;fill-opacity:1;fill-rule:nonzero;stroke:none;stroke-width:7.5;marker:none;visibility:visible;display:inline;overflow:visible;enable-background:accumulate"
       d="m 708.5,745.875 c -6.62741,0 -12,5.3726 -12,12 0,6.62742 5.37259,12 12,12 6.62742,0 12,-5.37258 12,-12 0,-6.6274 -5.37258,-12 -12,-12 z m -7.9375,8.0625 3.5,0 1.46875,6.46875 1.46875,-6.4375 3.15625,-0.0312 1.5,6.46875 1.46875,-6.46875 3.3125,0 -3.21875,9.84375 -3.34375,0 -1.375,-5.875 -1.40625,5.875 -3.34375,0 -3.1875,-9.84375 z"
       id="path4443"
       inkscape:connector-curvature="0" />
    <path
       style="color:#000000;fill:#1a1a1a;fill-opacity:1;fill-rule:nonzero;stroke:none;stroke-width:7.5;marker:none;visibility:visible;display:inline;overflow:visible;enable-background:accumulate"
       d="m 700.03125,805.875 c -1.95868,0 -3.53125,1.57256 -3.53125,3.53125 l 0,16.9375 c 0,1.95869 1.57257,3.53125 3.53125,3.53125 l 16.9375,0 c 1.95868,0 3.53125,-1.57256 3.53125,-3.53125 l 0,-16.9375 c 0,-1.95869 -1.57257,-3.53125 -3.53125,-3.53125 l -16.9375,0 z m 0.53125,7.625 3.5,0 1.46875,6.4375 L 707,813.5 l 3.15625,0 1.5,6.4375 1.46875,-6.4375 3.3125,0 -3.21875,9.8125 -3.34375,0 -1.375,-5.875 -1.40625,5.875 -3.34375,0 -3.1875,-9.8125 z"
       id="path4449"
       inkscape:connector-curvature="0" />
    <path
       style="font-size:medium;font-style:normal;font-variant:normal;font-weight:normal;font-stretch:normal;text-indent:0;text-align:start;text-decoration:none;line-height:normal;letter-spacing:normal;word-spacing:normal;text-transform:none;direction:ltr;block-progression:tb;writing-mode:lr-tb;text-anchor:start;baseline-shift:baseline;color:#000000;fill:#1a1a1a;fill-opacity:1;stroke:none;stroke-width:2;marker:none;visibility:visible;display:inline;overflow:visible;enable-background:accumulate;font-family:Sans;-inkscape-font-specification:Sans"
       d="m 708.5,864.875 c -7.16786,0 -13,5.83216 -13,13 0,7.16786 5.83214,13 13,13 7.16786,0 13,-5.83214 13,-13 0,-7.16784 -5.83214,-13 -13,-13 z m 0,2 c 6.08698,0 11,4.91304 11,11 0,6.08698 -4.91302,11 -11,11 -6.08698,0 -11,-4.91302 -11,-11 0,-6.08696 4.91302,-11 11,-11 z m -7.5,7.09375 3,9.3125 3.1875,0 1.3125,-5.5625 1.28125,5.5625 3.1875,0 3.03125,-9.3125 -3.125,0 -1.40625,6.09375 -1.40625,-6.09375 -3,0.0312 -1.375,6.0625 -1.40625,-6.09375 -3.28125,0 z"
       id="path4455"
       inkscape:connector-curvature="0" />
    <path
       style="color:#000000;fill:#1a1a1a;fill-opacity:1;fill-rule:nonzero;stroke:none;stroke-width:3.50500011;marker:none;visibility:visible;display:inline;overflow:visible;enable-background:accumulate"
       d="m 402.42644,703.94856 c 4.2855,4.28551 9.69247,6.35232 14.14973,5.85333 0.80451,-0.11301 1.37735,-0.4253 1.73535,-0.7833 l 1.23665,-1.23665 c 0.31578,-0.3025 0.5556,-0.69607 0.67752,-1.15103 l 0.18889,-0.7027 c 0.35463,-1.32347 -0.42698,-2.6753 -1.75045,-3.02992 l -3.95426,-1.05784 c -0.90991,-0.24378 -1.83236,0.0459 -2.43554,0.68256 l -1.18628,1.18629 c -1.82327,-0.4456 -3.71002,-1.49866 -5.31685,-3.1055 -1.60684,-1.60683 -2.65991,-3.49357 -3.10549,-5.31685 l 1.18628,-1.18628 c 0.63667,-0.60318 0.92635,-1.52564 0.68256,-2.43553 l -1.05784,-3.95427 c -0.35462,-1.32347 -1.70645,-2.10508 -3.02992,-1.75045 l -0.7027,0.18889 c -0.45496,0.12192 -0.84853,0.36174 -1.15103,0.67752 l -1.23665,1.23666 c -0.358,0.35799 -0.67029,0.93083 -0.7833,1.73534 -0.49899,4.45726 1.56782,9.86423 5.85333,14.14973 z"
       id="path4524"
       inkscape:connector-curvature="0" />
    <path
       style="color:#000000;fill:#1a1a1a;fill-opacity:1;fill-rule:nonzero;stroke:none;stroke-width:7.5;marker:none;visibility:visible;display:inline;overflow:visible;enable-background:accumulate"
       d="m 408.5,745.875 c -6.62742,0 -12,5.3726 -12,12 0,6.62742 5.37258,12 12,12 6.62742,0 12,-5.37258 12,-12 0,-6.6274 -5.37258,-12 -12,-12 z m -4.09375,5.5 c 0.62303,-0.0378 1.20693,0.34148 1.375,0.96875 l 0.5625,2.15625 c 0.13205,0.49286 -0.0301,0.98578 -0.375,1.3125 l -0.625,0.65625 c 0.24136,0.98761 0.78588,2.00463 1.65625,2.875 0.87037,0.87037 1.91865,1.44614 2.90625,1.6875 l 0.625,-0.65625 c 0.32672,-0.34482 0.81963,-0.50705 1.3125,-0.375 L 414,760.59375 c 0.71688,0.19208 1.12959,0.90812 0.9375,1.625 l -0.0937,0.375 c -0.066,0.24644 -0.20396,0.46114 -0.375,0.625 l -0.65625,0.6875 c -0.19391,0.19392 -0.50172,0.34505 -0.9375,0.40625 -2.41435,0.27028 -5.36619,-0.83493 -7.6875,-3.15625 -2.32132,-2.32131 -3.42653,-5.2419 -3.15625,-7.65625 0.0612,-0.43578 0.21233,-0.74359 0.40625,-0.9375 l 0.6875,-0.6875 c 0.16386,-0.17104 0.37856,-0.309 0.625,-0.375 l 0.375,-0.0937 c 0.0896,-0.024 0.19225,-0.0258 0.28125,-0.0312 z"
       id="path4544"
       inkscape:connector-curvature="0" />
    <path
       style="color:#000000;fill:#1a1a1a;fill-opacity:1;fill-rule:nonzero;stroke:none;stroke-width:7.5;marker:none;visibility:visible;display:inline;overflow:visible;enable-background:accumulate"
       d="m 400.03125,805.875 c -1.95868,0 -3.53125,1.57256 -3.53125,3.53125 l 0,16.9375 c 0,1.95869 1.57257,3.53125 3.53125,3.53125 l 16.9375,0 c 1.95868,0 3.53125,-1.57256 3.53125,-3.53125 l 0,-16.9375 c 0,-1.95869 -1.57257,-3.53125 -3.53125,-3.53125 l -16.9375,0 z m 4.375,5.5 c 0.62303,-0.0379 1.20693,0.37273 1.375,1 l 0.5625,2.125 c 0.13205,0.49286 -0.0301,1.01703 -0.375,1.34375 l -0.625,0.625 c 0.24136,0.98761 0.78588,2.00463 1.65625,2.875 0.87037,0.87037 1.91865,1.44614 2.90625,1.6875 l 0.625,-0.625 c 0.32672,-0.34482 0.81963,-0.50705 1.3125,-0.375 L 414,820.59375 c 0.71688,0.19208 1.12959,0.93937 0.9375,1.65625 l -0.0937,0.375 c -0.066,0.24644 -0.20396,0.46114 -0.375,0.625 l -0.65625,0.65625 c -0.19391,0.19392 -0.50172,0.3763 -0.9375,0.4375 -2.41435,0.27028 -5.36619,-0.86618 -7.6875,-3.1875 -2.32132,-2.32131 -3.42653,-5.2419 -3.15625,-7.65625 0.0612,-0.43578 0.21233,-0.74359 0.40625,-0.9375 l 0.6875,-0.65625 c 0.16386,-0.17104 0.37856,-0.309 0.625,-0.375 l 0.375,-0.0937 c 0.0896,-0.024 0.19225,-0.0571 0.28125,-0.0625 z"
       id="path4548"
       inkscape:connector-curvature="0" />
    <path
       style="font-size:medium;font-style:normal;font-variant:normal;font-weight:normal;font-stretch:normal;text-indent:0;text-align:start;text-decoration:none;line-height:normal;letter-spacing:normal;word-spacing:normal;text-transform:none;direction:ltr;block-progression:tb;writing-mode:lr-tb;text-anchor:start;baseline-shift:baseline;color:#000000;fill:#1a1a1a;fill-opacity:1;stroke:none;stroke-width:2;marker:none;visibility:visible;display:inline;overflow:visible;enable-background:accumulate;font-family:Sans;-inkscape-font-specification:Sans"
       d="m 408.5,864.875 c -7.16786,0 -13,5.83216 -13,13 0,7.16786 5.83214,13 13,13 7.16786,0 13,-5.83214 13,-13 0,-7.16784 -5.83214,-13 -13,-13 z m 0,2 c 6.08698,0 11,4.91304 11,11 0,6.08698 -4.91302,11 -11,11 -6.08698,0 -11,-4.91302 -11,-11 0,-6.08696 4.91302,-11 11,-11 z m -4.5,3.875 c -0.0976,0.006 -0.18302,0.0362 -0.28125,0.0625 l -0.4375,0.0937 c -0.27012,0.0723 -0.50789,0.21877 -0.6875,0.40625 l -0.71875,0.75 c -0.21256,0.21256 -0.40166,0.55356 -0.46875,1.03125 -0.29628,2.6465 0.92424,5.83049 3.46875,8.375 2.54452,2.54452 5.75975,3.79627 8.40625,3.5 0.47769,-0.0671 0.81868,-0.25619 1.03125,-0.46875 l 0.75,-0.75 c 0.18749,-0.17962 0.30261,-0.41737 0.375,-0.6875 l 0.125,-0.40625 c 0.21056,-0.78581 -0.24544,-1.60195 -1.03125,-1.8125 l -2.34375,-0.625 c -0.54026,-0.14474 -1.11061,0.0283 -1.46875,0.40625 l -0.6875,0.71875 c -1.08257,-0.26457 -2.2022,-0.8897 -3.15625,-1.84375 -0.95405,-0.95406 -1.57919,-2.07368 -1.84375,-3.15625 l 0.6875,-0.71875 c 0.37802,-0.35814 0.55099,-0.89725 0.40625,-1.4375 L 405.5,871.8437 c -0.18424,-0.68758 -0.81706,-1.13524 -1.5,-1.09375 z"
       id="path4552"
       inkscape:connector-curvature="0" />
    <path
       style="font-size:medium;font-style:normal;font-variant:normal;font-weight:normal;font-stretch:normal;text-indent:0;text-align:start;text-decoration:none;line-height:normal;letter-spacing:normal;word-spacing:normal;text-transform:none;direction:ltr;block-progression:tb;writing-mode:lr-tb;text-anchor:start;baseline-shift:baseline;color:#000000;fill:#1a1a1a;fill-opacity:1;fill-rule:nonzero;stroke:none;stroke-width:5;marker:none;visibility:visible;display:inline;overflow:visible;enable-background:accumulate;font-family:Sans;-inkscape-font-specification:Sans"
       d="m 580.60451,685.875 0,2.50831 0,8.89312 -3.81948,0 0,12.59857 23.42993,0 0,-12.59857 -3.81948,0 0,-8.89312 0,-2.50831 -2.50831,0 -10.77435,0 -2.50831,0 z m 2.90737,2.62233 10.03328,0 0,8.7791 -10.03328,0 0,-8.7791 z m 1.53918,1.19715 0,2.62233 6.89787,0 0,-2.62233 -6.89787,0 z m 0,3.81947 0,2.67934 6.89787,0 0,-2.67934 -6.89787,0 z m -3.36342,7.63896 c 1.35748,0 2.45131,1.09383 2.45131,2.45131 0,1.35748 -1.09383,2.4513 -2.45131,2.4513 -1.35748,0 -2.50831,-1.09382 -2.50831,-2.4513 0,-1.35748 1.15083,-2.45131 2.50831,-2.45131 z"
       id="path4596"
       inkscape:connector-curvature="0" />
    <path
       style="color:#000000;fill:#1a1a1a;fill-opacity:1;fill-rule:nonzero;stroke:none;stroke-width:7.5;marker:none;visibility:visible;display:inline;overflow:visible;enable-background:accumulate"
       d="m 588.5,745.875 c -6.62741,0 -12,5.3726 -12,12 0,6.62742 5.37259,12 12,12 6.62743,0 12,-5.37258 12,-12 0,-6.6274 -5.37257,-12 -12,-12 z m -4.5625,4.4375 1.46875,0 6.21875,0 1.4375,0 0,1.4375 0,5.15625 2.21875,0 0,7.25 -13.53125,0 0,-7.25 2.1875,0 0,-5.15625 0,-1.4375 z m 1.6875,1.5 0,5.09375 5.8125,0 0,-5.09375 -5.8125,0 z m 0.90625,0.8125 3.96875,0 0,1.03125 -3.96875,0 0,-1.03125 z m 0,2.21875 3.96875,0 0,1.09375 -3.96875,0 0,-1.09375 z m -1.96875,4.28125 c -0.78392,0 -1.4375,0.62232 -1.4375,1.40625 0,0.78392 0.65358,1.4375 1.4375,1.4375 0.78393,0 1.4375,-0.65358 1.4375,-1.4375 0,-0.78393 -0.65357,-1.40625 -1.4375,-1.40625 z"
       id="path4606"
       inkscape:connector-curvature="0" />
    <path
       style="color:#000000;fill:#1a1a1a;fill-opacity:1;fill-rule:nonzero;stroke:none;stroke-width:7.5;marker:none;visibility:visible;display:inline;overflow:visible;enable-background:accumulate"
       d="m 580.0625,805.875 c -1.95867,0 -3.5625,1.57256 -3.5625,3.53125 l 0,16.9375 c 0,1.95869 1.60383,3.53125 3.5625,3.53125 l 16.90625,0 c 1.95867,0 3.53125,-1.57256 3.53125,-3.53125 l 0,-16.9375 c 0,-1.95869 -1.57258,-3.53125 -3.53125,-3.53125 l -16.90625,0 z m 3.875,5.0625 1.46875,0 6.21875,0 1.4375,0 0,1.46875 0,5.125 2.21875,0 0,7.28125 -13.53125,0 0,-7.28125 2.1875,0 0,-5.125 0,-1.46875 z m 1.6875,1.53125 0,5.0625 5.8125,0 0,-5.0625 -5.8125,0 z m 0.90625,0.9375 3.96875,0 0,1.03125 -3.96875,0 0,-1.03125 z m 0,2.09375 3.96875,0 0,1.0625 -3.96875,0 0,-1.0625 z m -1.96875,4.28125 c -0.78393,0 -1.4375,0.62232 -1.4375,1.40625 0,0.78392 0.65358,1.40625 1.4375,1.40625 0.78393,0 1.4375,-0.62233 1.4375,-1.40625 0,-0.78393 -0.65357,-1.40625 -1.4375,-1.40625 z"
       id="path4610"
       inkscape:connector-curvature="0" />
    <path
       style="font-size:medium;font-style:normal;font-variant:normal;font-weight:normal;font-stretch:normal;text-indent:0;text-align:start;text-decoration:none;line-height:normal;letter-spacing:normal;word-spacing:normal;text-transform:none;direction:ltr;block-progression:tb;writing-mode:lr-tb;text-anchor:start;baseline-shift:baseline;color:#000000;fill:#1a1a1a;fill-opacity:1;stroke:none;stroke-width:2;marker:none;visibility:visible;display:inline;overflow:visible;enable-background:accumulate;font-family:Sans;-inkscape-font-specification:Sans"
       d="m 588.5,864.875 c -7.16786,0 -13,5.83216 -13,13 0,7.16786 5.83214,13 13,13 7.16786,0 13,-5.83214 13,-13 0,-7.16784 -5.83214,-13 -13,-13 z m 0,2 c 6.08698,0 11,4.91304 11,11 0,6.08698 -4.91302,11 -11,11 -6.08698,0 -11,-4.91302 -11,-11 0,-6.08696 4.91302,-11 11,-11 z m -4.5625,3.75 0,1.46875 0,5.125 -2.1875,0 0,7.28125 13.53125,0 0,-7.28125 -2.21875,0 0,-5.125 0,-1.46875 -1.4375,0 -6.21875,0 -1.46875,0 z m 1.6875,1.53125 5.8125,0 0,5.0625 -5.8125,0 0,-5.0625 z m 0.90625,0.9375 0,1.03125 3.96875,0 0,-1.03125 -3.96875,0 z m 0,2.09375 0,1.0625 3.96875,0 0,-1.0625 -3.96875,0 z m -2.25,4.28125 c 0.0932,-0.0188 0.18326,0 0.28125,0 0.78393,0 1.4375,0.62232 1.4375,1.40625 0,0.78392 -0.65357,1.40625 -1.4375,1.40625 -0.78392,0 -1.4375,-0.62233 -1.4375,-1.40625 0,-0.68594 0.50387,-1.27463 1.15625,-1.40625 z"
       id="path4614"
       inkscape:connector-curvature="0" />
    <g
       style="font-size:40px;font-style:normal;font-variant:normal;font-weight:bold;font-stretch:normal;text-align:start;line-height:125%;letter-spacing:1px;word-spacing:0px;text-anchor:start;fill:#1a1a1a;fill-opacity:1;stroke:none;font-family:TeX Gyre Adventor;-inkscape-font-specification:Sans Bold"
       id="text5402"
       transform="matrix(0.21812764,0,0,0.21812764,400.01922,708.97317)">
      <path
         d="m 482.92,956.06218 c 0,-3.51999 -1.28,-5.76 -5.04,-7.32 2.36,-1.24 3.28,-2.8 3.28,-5.56 0,-2.75999 -1.24,-5.08 -3.36,-6.44 -1.76,-1.12 -3.6,-1.44 -8,-1.44 l -6.08,0 0,29.56 7.88,0 c 7.59999,0 11.32,-3.4 11.32,-8.8 m -5.52,-0.12 c 0,2.56 -1.64,3.68 -5.48,3.68 l -2.72,0 0,-7.56 2.6,0 c 3.8,0 5.6,1.24001 5.6,3.88 m -1.72,-12.28 c 0,2.12 -1.4,3.04 -4.72,3.04 l -1.76,0 0,-6.04 2.24,0 c 2.84,0 4.24,0.96 4.24,3"
         id="path5407"
         inkscape:connector-curvature="0" />
      <path
         d="m 502.44312,964.86218 0,-5.24 -9.04,0 0,-24.32 -5.47999,0 0,29.56 14.51999,0"
         id="path5409"
         inkscape:connector-curvature="0" />
      <path
         d="m 535,950.06218 c 0,-8.43999 -6.76001,-15.28 -15.2,-15.28 -8.79999,0 -15.6,6.68001 -15.6,15.32 0,8.51999 6.88001,15.28 15.56,15.28 8.59999,0 15.24,-6.68001 15.24,-15.32 m -5.52,0.08 c 0,5.68 -4.16001,9.96 -9.76,9.96 -5.59999,0 -10,-4.4 -10,-10 0,-5.71999 4.32001,-10.04 10,-10.04 5.47999,0 9.76,4.40001 9.76,10.08"
         id="path5411"
         inkscape:connector-curvature="0" />
      <path
         d="m 570.31375,950.50218 0,-0.72 -19.32,0 0,5.12 12.24,0 c -1.6,3.28 -4.8,5.2 -8.68,5.2 -5.79999,0 -10.24,-4.36 -10.24,-10 0,-5.55999 4.08001,-10.04 9.92,-10.04 3.44,0 6.28,1.36001 8.12,3.92 l 6.44,0 c -1.92,-5.31999 -8.00001,-9.2 -14.44,-9.2 -8.63999,0 -15.56,6.76001 -15.56,15.24 0,8.63999 7.00001,15.36 16.08,15.36 8.71999,0 15.44,-6.84001 15.44,-14.88"
         id="path5413"
         inkscape:connector-curvature="0" />
      <path
         d="m 580.3875,964.86218 0,-5.12 -5.32,0 0,5.12 5.32,0"
         id="path5415"
         inkscape:connector-curvature="0" />
      <path
         d="m 601.59937,964.86218 0,-5.24 -9.03999,0 0,-24.32 -5.48,0 0,29.56 14.51999,0"
         id="path5417"
         inkscape:connector-curvature="0" />
      <path
         d="m 634.15625,950.06218 c 0,-8.43999 -6.76001,-15.28 -15.2,-15.28 -8.79999,0 -15.6,6.68001 -15.6,15.32 0,8.51999 6.88001,15.28 15.56,15.28 8.59999,0 15.24,-6.68001 15.24,-15.32 m -5.52,0.08 c 0,5.68 -4.16001,9.96 -9.76,9.96 -5.59999,0 -10,-4.4 -10,-10 0,-5.71999 4.32001,-10.04 10,-10.04 5.47999,0 9.76,4.40001 9.76,10.08"
         id="path5419"
         inkscape:connector-curvature="0" />
      <path
         d="m 669.47,950.50218 0,-0.72 -19.32,0 0,5.12 12.24,0 c -1.6,3.28 -4.8,5.2 -8.68,5.2 -5.79999,0 -10.24,-4.36 -10.24,-10 0,-5.55999 4.08001,-10.04 9.92,-10.04 3.44,0 6.28,1.36001 8.12,3.92 l 6.44,0 c -1.92,-5.31999 -8.00001,-9.2 -14.44,-9.2 -8.63999,0 -15.56,6.76001 -15.56,15.24 0,8.63999 7.00001,15.36 16.08,15.36 8.71999,0 15.44,-6.84001 15.44,-14.88"
         id="path5421"
         inkscape:connector-curvature="0" />
      <path
         d="m 703.34375,950.06218 c 0,-8.43999 -6.76001,-15.28 -15.2,-15.28 -8.79999,0 -15.6,6.68001 -15.6,15.32 0,8.51999 6.88001,15.28 15.56,15.28 8.59999,0 15.24,-6.68001 15.24,-15.32 m -5.52,0.08 c 0,5.68 -4.16001,9.96 -9.76,9.96 -5.59999,0 -10,-4.4 -10,-10 0,-5.71999 4.32001,-10.04 10,-10.04 5.47999,0 9.76,4.40001 9.76,10.08"
         id="path5423"
         inkscape:connector-curvature="0" />
      <path
         d="m 725.6575,955.90218 c 0,-3.99999 -1.64001,-6.6 -7.64,-8.84 -2.8,-1.04 -2.88,-1.08 -3.28,-1.32 -1.08,-0.68 -1.64,-1.6 -1.64,-2.68 0,-1.76 1.24,-3 3.04,-3 1.84,0 2.96,1.12 3.12,3.12 l 5.68,0 c -0.28,-5.19999 -4,-8.4 -8.76,-8.4 -4.76,0 -8.6,3.72001 -8.6,8.4 0,3.72 2.2,6.56 6.16,8.04 3.92,1.48 4.24,1.6 5.12,2.28 0.88,0.68 1.36,1.8 1.36,3 0,2.12 -1.64,3.6 -4,3.6 -2.44,0 -3.76,-1.2 -4,-3.68 l -5.72,0 c 0.48,5.6 4.52001,8.96 9.72,8.96 5.31999,0 9.44,-4.12 9.44,-9.48"
         id="path5425"
         inkscape:connector-curvature="0" />
      <path
         d="m 749.63875,956.06218 c 0,-3.51999 -1.28,-5.76 -5.04,-7.32 2.36,-1.24 3.28,-2.8 3.28,-5.56 0,-2.75999 -1.24,-5.08 -3.36,-6.44 -1.76,-1.12 -3.6,-1.44 -8,-1.44 l -6.08,0 0,29.56 7.88,0 c 7.59999,0 11.32,-3.4 11.32,-8.8 m -5.52,-0.12 c 0,2.56 -1.64,3.68 -5.48,3.68 l -2.72,0 0,-7.56 2.6,0 c 3.8,0 5.6,1.24001 5.6,3.88 m -1.72,-12.28 c 0,2.12 -1.4,3.04 -4.72,3.04 l -1.76,0 0,-6.04 2.24,0 c 2.84,0 4.24,0.96 4.24,3"
         id="path5427"
         inkscape:connector-curvature="0" />
      <path
         d="m 775.39937,935.30218 -5.92,0 -6.51999,13.6 -6.56001,-13.6 -5.92,0 9.72001,18.64 0,10.92 5.48,0 0,-10.92 9.71999,-18.64"
         id="path5429"
         inkscape:connector-curvature="0" />
      <path
         d="m 802.805,964.86218 0,-29.56 -5.48,0 0,21.52 -12.24,-21.52 -6.24,0 0,29.56 5.48,0 0,-21.48 12.36,21.48 6.12,0"
         id="path5431"
         inkscape:connector-curvature="0" />
      <path
         d="m 814.93438,964.86218 0,-29.56 -5.48,0 0,29.56 5.48,0"
         id="path5433"
         inkscape:connector-curvature="0" />
      <path
         d="m 849.30625,956.62218 -6.44,0 c -2.4,2.52 -4.48,3.48 -7.32,3.48 -5.43999,0 -9.92,-4.56 -9.92,-10.08 0,-5.55999 4.16001,-9.96 9.8,-9.96 3.44,0 5.76,1.12001 7.76,3.72 l 6.12,0 c -2.6,-5.71999 -7.92001,-9 -14,-9 -8.35999,0 -15.2,6.84001 -15.2,15.2 0,8.51999 6.92001,15.4 15.56,15.4 6.03999,0 11.32,-3.36 13.64,-8.76"
         id="path5435"
         inkscape:connector-curvature="0" />
      <path
         d="m 875.03813,964.86218 -11.12,-15.04 11.12,-14.52 -6.6,0 -9.16,12.76 0,-12.76 -5.48,0 0,29.56 5.48,0 0,-13 9.16,13 6.6,0"
         id="path5437"
         inkscape:connector-curvature="0" />
      <path
         d="m 885.04375,964.86218 0,-5.12 -5.32,0 0,5.12 5.32,0"
         id="path5439"
         inkscape:connector-curvature="0" />
      <path
         d="m 919.41562,956.62218 -6.43999,0 c -2.4,2.52 -4.48001,3.48 -7.32001,3.48 -5.43999,0 -9.91999,-4.56 -9.91999,-10.08 0,-5.55999 4.16,-9.96 9.79999,-9.96 3.44,0 5.76001,1.12001 7.76,3.72 l 6.12,0 c -2.59999,-5.71999 -7.92,-9 -14,-9 -8.35999,0 -15.19999,6.84001 -15.19999,15.2 0,8.51999 6.92,15.4 15.55999,15.4 6.04,0 11.32001,-3.36 13.64,-8.76"
         id="path5441"
         inkscape:connector-curvature="0" />
      <path
         d="m 953.1875,950.06218 c 0,-8.43999 -6.76001,-15.28 -15.2,-15.28 -8.79999,0 -15.6,6.68001 -15.6,15.32 0,8.51999 6.88001,15.28 15.56,15.28 8.59999,0 15.24,-6.68001 15.24,-15.32 m -5.52,0.08 c 0,5.68 -4.16001,9.96 -9.76,9.96 -5.59999,0 -10,-4.4 -10,-10 0,-5.71999 4.32001,-10.04 10,-10.04 5.47999,0 9.76,4.40001 9.76,10.08"
         id="path5443"
         inkscape:connector-curvature="0" />
      <path
         d="m 989.38125,964.86218 0,-29.56 -7.52,0 -7.88,22.4 -7.96,-22.4 -7.52,0 0,29.56 5.48,0 0,-22.16 7.72,22.16 4.48,0 7.72,-22.16 0,22.16 5.48,0"
         id="path5445"
         inkscape:connector-curvature="0" />
    </g>
  </g>
</svg>
